<svg width="50" height="49" viewBox="0 0 50 49" fill="none" xmlns="http://www.w3.org/2000/svg">
<g clip-path="url(#clip0_97_103)">
<rect width="50" height="49"/>
<path d="M27.6087 4.20982V8.31597C26.8723 8.12038 26.1263 7.96322 25.3737 7.84513C25.0699 7.82231 24.7647 7.86337 24.4777 7.96567C24.1907 8.06796 23.9282 8.22924 23.707 8.43915V4.48083C24.2413 4.17623 24.8413 4.00619 25.4557 3.98535C26.4119 3.98535 26.6524 4.20982 27.6087 4.20982Z" fill="white" stroke="white" stroke-width="0.202186" stroke-miterlimit="10"/>
<path d="M23.5378 4.48121V8.44501C23.3177 8.23432 23.0558 8.07251 22.7691 7.97015C22.4823 7.86779 22.1773 7.82719 21.8738 7.85099C21.1221 7.96897 20.377 8.12613 19.6416 8.32183V4.21568C20.5979 4.21568 20.8356 3.99121 21.7919 3.99121C22.4049 4.01016 23.0041 4.17834 23.5378 4.48121Z" fill="white" stroke="white" stroke-width="0.202186" stroke-miterlimit="10"/>
<path d="M28.1422 4.73499L27.6094 4.1875" stroke="white" stroke-width="0.202186" stroke-miterlimit="10"/>
<path d="M19.6422 4.1875L19.1094 4.73499" stroke="white" stroke-width="0.202186" stroke-miterlimit="10"/>
<path d="M29.1609 9.65198L24.4696 9.37824C24.2081 9.51143 23.9188 9.58086 23.6254 9.58086C23.3319 9.58086 23.0427 9.51143 22.7811 9.37824L18.0898 9.65198L18.18 4.72461H19.109L18.7975 5.05858V9.14008L22.8959 8.90193C23.1183 9.0222 23.3671 9.08517 23.6199 9.08517C23.8727 9.08517 24.1215 9.0222 24.3439 8.90193L28.4423 9.14008V5.05858L28.1418 4.73556H29.0707L29.1609 9.65198Z" fill="white" stroke="white" stroke-width="0.202186" stroke-miterlimit="10"/>
<path d="M27.6094 8.32129L28.4536 9.13978" stroke="white" stroke-width="0.202186" stroke-miterlimit="10"/>
<path d="M19.6421 8.32129L18.7979 9.13978" stroke="white" stroke-width="0.202186" stroke-miterlimit="10"/>
<path d="M23.7348 4.40178L23.6555 4.54687L23.6255 4.47843L23.59 4.54687L23.4971 4.37988L23.6309 4.44558L23.7348 4.40178Z" fill="white"/>
<path d="M23.6254 8.56181C23.6355 8.53601 23.6438 8.50947 23.6499 8.48242L23.6745 8.56181L23.6254 8.61382L23.5762 8.56455L23.598 8.48242C23.6033 8.51006 23.6125 8.5368 23.6254 8.56181Z" fill="white"/>
<path d="M20.8114 24.5567C20.8715 24.4446 20.9096 24.3219 20.9235 24.1954C20.9426 24.0968 20.9562 24.0749 20.9016 23.9928C20.847 23.9107 20.8825 23.9654 20.9016 23.9025C20.9207 23.8395 20.8634 23.7848 20.836 23.7109C20.8087 23.637 20.8743 23.574 20.836 23.5028C20.7978 23.4316 20.7185 23.3742 20.7431 23.2701C20.7677 23.1661 20.9371 23.1469 20.7814 23.0594C20.7559 23.0532 20.7321 23.0417 20.7113 23.0257C20.6906 23.0096 20.6735 22.9894 20.6612 22.9663C20.6557 22.9063 20.6329 22.8492 20.5956 22.802C20.5323 22.813 20.4702 22.8294 20.4098 22.8513C20.3128 22.8558 20.2157 22.8494 20.1202 22.8321C19.9937 22.8555 19.8641 22.8555 19.7377 22.8321C19.6891 22.8121 19.6388 22.7966 19.5874 22.7856C19.5277 22.7816 19.4683 22.7734 19.4098 22.761C19.3114 22.7281 19.3114 22.6214 19.3032 22.5256C19.3606 22.4982 19.4153 22.5256 19.4672 22.4735C19.5191 22.4215 19.5246 22.3421 19.5874 22.3202C19.6233 22.3681 19.6761 22.4004 19.7349 22.4106H19.806C19.8841 22.4472 19.9545 22.4983 20.0136 22.5611C20.0628 22.5995 20.0983 22.6624 20.1612 22.6515C20.2732 22.6351 20.2896 22.4571 20.2923 22.3777C20.2742 22.364 20.2522 22.3565 20.2295 22.3565C20.2068 22.3565 20.1847 22.364 20.1666 22.3777C20.1284 22.312 20.142 22.2628 20.1256 22.1888L20.0901 22.0848L20.0382 22.0465C20.0191 22.0246 20.0382 22.0137 20.0136 21.9863L19.989 21.9397C19.9726 21.9142 19.9781 21.8923 20.0054 21.874C20.0355 21.7837 20.0901 21.729 20.0655 21.6277C20.0409 21.5264 20.0191 21.5428 19.9481 21.5346C19.877 21.5264 19.8797 21.5346 19.8251 21.4799C19.7551 21.4002 19.7022 21.307 19.6694 21.2061H19.6994C19.7377 21.2335 19.7677 21.228 19.7896 21.1924C19.8236 21.1685 19.8486 21.1338 19.8606 21.0939C19.8841 21.0377 19.9218 20.9887 19.9699 20.9515C20.0546 21.0419 20.0737 20.8913 20.1393 20.8721C20.1673 20.8963 20.2004 20.9139 20.236 20.9236C20.2717 20.9334 20.3091 20.935 20.3455 20.9285C20.3818 20.9219 20.4163 20.9073 20.4463 20.8857C20.4764 20.8641 20.5012 20.8361 20.5191 20.8037C20.5956 20.6915 20.5519 20.6094 20.4262 20.5902C20.4847 20.5524 20.5266 20.4937 20.5433 20.4261C20.5601 20.3584 20.5504 20.2869 20.5164 20.2261C20.459 20.1276 20.418 20.1659 20.3196 20.1823C20.2213 20.1987 20.2158 20.2343 20.1639 20.2425C20.0601 20.259 20.071 20.1714 20.0328 20.1057C20.0061 20.0607 19.9697 20.0223 19.9262 19.9934L19.8251 19.9223C19.7761 19.9166 19.7282 19.9037 19.683 19.8839C19.6751 19.7553 19.6503 19.6283 19.6093 19.5062C19.5937 19.4994 19.577 19.4959 19.5601 19.4959C19.5431 19.4959 19.5264 19.4994 19.5109 19.5062C19.4562 19.4724 19.3945 19.4518 19.3306 19.4459C19.224 19.4459 19.142 19.5144 19.0382 19.4925C18.957 19.4678 18.8817 19.4269 18.8169 19.372C18.8034 19.3558 18.7861 19.3431 18.7666 19.335C18.7471 19.3269 18.7259 19.3236 18.7049 19.3255C18.6653 19.3073 18.6241 19.2926 18.5819 19.2817C18.4726 19.2543 18.4043 19.1749 18.3087 19.1366C18.2508 19.1217 18.1908 19.1161 18.1311 19.1202C18.0655 19.1274 18.0006 19.1402 17.9371 19.1585H17.7459L17.8114 19.101C17.8444 19.0617 17.8831 19.0275 17.9262 18.9997C17.9644 18.9751 18.0136 18.9642 18.0519 18.9395C18.0769 18.9238 18.0981 18.9026 18.1137 18.8774C18.1294 18.8523 18.139 18.8239 18.142 18.7944C18.147 18.7659 18.1445 18.7366 18.135 18.7093C18.1254 18.682 18.109 18.6576 18.0874 18.6384C18.0328 18.5672 18.0109 18.4085 17.8989 18.4167C17.8989 18.2853 17.9672 18.2004 17.8634 18.0964C17.8087 18.0416 17.7377 18.0334 17.6776 17.9869C17.6449 17.9684 17.6184 17.9408 17.6011 17.9075C17.5882 17.8658 17.5678 17.8268 17.5409 17.7925C17.5027 17.7488 17.4617 17.7076 17.418 17.6694C17.3878 17.6425 17.3537 17.6203 17.3169 17.6037C17.2759 17.5872 17.2322 17.6037 17.1912 17.6037C17.1502 17.6037 17.153 17.579 17.112 17.5434C17.071 17.5078 17.0901 17.5434 17.0491 17.5133C17.0082 17.4832 17.0164 17.4832 16.9945 17.464L16.9289 17.3983C16.8907 17.3569 16.8577 17.3109 16.8306 17.2615C16.7978 17.2149 16.7103 17.1465 16.724 17.0863L16.7978 17.0534C16.6694 17.0726 16.5246 16.9987 16.3989 17.0288C16.3715 17.141 16.3989 17.2204 16.3032 17.3025C16.2711 17.3379 16.2281 17.3614 16.181 17.3694C16.134 17.3773 16.0856 17.3692 16.0437 17.3463C16 17.3272 15.9836 17.308 15.9344 17.3244C15.8852 17.3409 15.877 17.3628 15.847 17.3764C15.7969 17.3939 15.7443 17.4032 15.6912 17.4038C15.6502 17.4038 15.5273 17.3655 15.4945 17.3847C15.4617 17.4038 15.4262 17.5544 15.4125 17.5927C15.3989 17.631 15.4125 17.7706 15.3169 17.7597C15.2213 17.7487 15.2787 17.7214 15.2759 17.6776C15.2322 17.6584 15.1803 17.6776 15.1366 17.6776C15.0464 17.6502 15.0218 17.5544 14.9617 17.4942C14.9016 17.4339 14.795 17.4257 14.7568 17.3518C14.7446 17.3144 14.73 17.2778 14.7131 17.2423C14.6502 17.1438 14.571 17.2013 14.489 17.2423C14.4549 17.2589 14.4177 17.2683 14.3797 17.2697C14.3719 17.2701 14.3642 17.2679 14.3578 17.2634C14.3514 17.2589 14.3466 17.2525 14.3442 17.2451C14.306 17.2451 14.2759 17.2451 14.2486 17.2149C14.2213 17.1848 14.2322 17.1492 14.1885 17.1301C14.1449 17.1246 14.1009 17.1246 14.0573 17.1301C13.9289 17.1301 13.9535 17.193 13.9153 17.2971C13.877 17.4011 13.7595 17.3436 13.642 17.3272C13.571 17.3272 13.4426 17.3545 13.4426 17.2451C13.3743 17.2451 13.2759 17.308 13.2322 17.3573C13.1885 17.4066 13.2322 17.3874 13.2022 17.412C13.1818 17.4274 13.1566 17.4352 13.1311 17.4339C13.071 17.4339 13.0901 17.3655 13.0382 17.3463C12.9863 17.3272 12.9781 17.3463 12.9535 17.3463C12.9289 17.3463 12.9289 17.3217 12.9125 17.319C12.847 17.319 12.7787 17.3463 12.7103 17.3463C12.6717 17.3503 12.6327 17.3427 12.5983 17.3244C12.5765 17.3107 12.571 17.2779 12.5464 17.267C12.4754 17.2286 12.4262 17.371 12.4153 17.4202C12.4043 17.4559 12.4043 17.4941 12.4153 17.5297C12.4317 17.5571 12.4535 17.5297 12.4617 17.5571C12.4262 17.5571 12.3879 17.5571 12.3497 17.579C12.3114 17.6009 12.2677 17.6037 12.2431 17.6173C12.2185 17.631 12.2158 17.6173 12.2022 17.6365C12.2568 17.6995 12.2022 17.85 12.1858 17.9102C12.1694 17.9705 12.1093 18.0827 12.0546 18.0827C12 18.0827 12 17.9705 11.9754 17.9239C11.9508 17.8774 11.9399 17.8774 11.8961 17.861C11.7683 17.8111 11.6379 17.7682 11.5054 17.7323C11.4617 17.7323 11.418 17.7323 11.377 17.7323C11.377 17.6694 11.377 17.6666 11.3224 17.6557C11.2557 17.653 11.1896 17.6419 11.1256 17.6228C11.0874 17.6037 11.0819 17.5516 11.0491 17.5325C11.0164 17.5133 10.9754 17.5188 10.9289 17.5188C10.836 17.4887 10.8716 17.3326 10.7787 17.3053C10.6858 17.2779 10.6448 17.3463 10.5901 17.3545C10.5355 17.3628 10.4617 17.3545 10.4207 17.3929C10.4617 17.4613 10.5164 17.4695 10.5218 17.5516C10.5246 17.5789 10.5246 17.6065 10.5218 17.6338C10.5218 17.6611 10.4945 17.6611 10.4863 17.6885C10.4781 17.7159 10.4863 17.7542 10.5273 17.7953C10.5683 17.8363 10.6366 17.8966 10.6011 17.9458C10.5655 17.9951 10.4945 17.9267 10.4508 17.9458C10.4071 17.965 10.4235 17.9732 10.4071 18.0088C10.3918 18.0417 10.3702 18.0712 10.3435 18.0956C10.3167 18.1201 10.2854 18.1389 10.2513 18.1511C10.194 18.1785 10.1858 18.1511 10.1967 18.2196C10.2076 18.288 10.2568 18.3099 10.2513 18.3537C10.2459 18.3975 10.1639 18.4304 10.1175 18.4386C10.1161 18.4541 10.1161 18.4696 10.1175 18.4851C10.0901 18.4851 10.0737 18.4605 10.0464 18.4659C10.0191 18.4714 10.0027 18.518 9.99177 18.5344C9.98084 18.5508 9.97537 18.6056 9.95352 18.622C9.93166 18.6384 9.91253 18.622 9.89341 18.622C9.7404 18.6658 9.9098 18.7233 9.87428 18.8054C9.83057 18.8218 9.78412 18.8054 9.7404 18.8054C9.69669 18.8054 9.68576 18.8492 9.66663 18.8902C9.64751 18.9313 9.60652 18.9642 9.55188 19.0052C9.48078 19.0501 9.42318 19.1135 9.38521 19.1886C9.36882 19.2488 9.4016 19.3228 9.38521 19.383C9.36882 19.4432 9.36062 19.424 9.35516 19.4624C9.34969 19.5007 9.35516 19.5144 9.35516 19.539C9.33945 19.5598 9.31999 19.5774 9.29778 19.591C9.2486 19.6376 9.25133 19.6595 9.2486 19.7334C9.24911 19.8051 9.25643 19.8766 9.27046 19.9469C9.2813 19.9956 9.2813 20.046 9.27046 20.0947C9.2568 20.1303 9.22128 20.1303 9.19122 20.1522C9.21464 20.1998 9.22495 20.2528 9.22111 20.3057C9.21727 20.3587 9.19941 20.4096 9.16936 20.4533C9.20762 20.4862 9.2568 20.4971 9.29778 20.5272C9.34219 20.5682 9.37515 20.6201 9.39341 20.6778C9.42134 20.7521 9.43434 20.8311 9.43166 20.9105C9.43531 20.9479 9.44961 20.9836 9.47285 21.0132C9.49609 21.0428 9.52731 21.0651 9.56281 21.0775C9.59013 21.0775 9.65844 21.0939 9.6721 21.113C9.68576 21.1322 9.65297 21.1924 9.64751 21.2225C9.63792 21.2723 9.63792 21.3234 9.64751 21.3731C9.64751 21.4059 9.71035 21.4059 9.74313 21.4251C9.77592 21.4443 9.81964 21.4881 9.86609 21.5018C9.91253 21.5154 9.95079 21.5018 9.98904 21.5018C10.0273 21.5018 10.0382 21.5401 10.0519 21.5921C10.0574 21.6431 10.0732 21.6925 10.0983 21.7372C10.0557 21.7528 10.0118 21.7647 9.96718 21.7728C9.87225 21.8 9.77343 21.8111 9.67483 21.8056C9.59653 21.8175 9.51899 21.834 9.44259 21.8549C9.35516 21.8877 9.3333 21.989 9.26226 22.0492C9.2572 22.0673 9.24592 22.083 9.23041 22.0935C9.21491 22.104 9.19618 22.1087 9.17756 22.1067L9.11472 22.1259C9.06735 22.185 9.03208 22.2529 9.01089 22.3257C9.01089 22.3558 9.01089 22.4215 8.98904 22.4407C8.96718 22.4599 8.93439 22.4735 8.91527 22.5037C8.89869 22.5327 8.87948 22.5602 8.85789 22.5858C8.77575 22.6466 8.69896 22.7144 8.62838 22.7883C8.56827 22.8705 8.56827 22.7883 8.49177 22.854L8.45352 22.9197C8.39962 22.939 8.34075 22.939 8.28685 22.9197L8.22947 23.0046V23.1251C8.21613 23.1681 8.19162 23.2068 8.15844 23.2373C8.10106 23.3139 8.06554 23.4043 8.01363 23.4864C7.98656 23.5202 7.95735 23.5522 7.92619 23.5822C7.89887 23.6178 7.88794 23.6643 7.86335 23.6999C7.82752 23.7414 7.79889 23.7886 7.77865 23.8395C7.75406 23.9025 7.75953 23.9025 7.71581 23.9381C7.6721 23.9737 7.6557 23.9545 7.66663 24.0065C7.67601 23.9984 7.68728 23.9927 7.69942 23.9901C7.70761 24.1305 7.70761 24.2712 7.69942 24.4116L7.6721 24.3651C7.59559 24.3651 7.6721 24.4719 7.68849 24.4965C7.70488 24.5211 7.73494 24.6197 7.80051 24.6306C7.86608 24.6416 7.92073 24.5622 7.9863 24.5157C8.05188 24.4691 8.11199 24.5348 8.20762 24.554C8.28818 24.5667 8.37022 24.5667 8.45078 24.554C8.43772 24.5595 8.42646 24.5686 8.41826 24.5802C8.41005 24.5918 8.40523 24.6055 8.40434 24.6197C8.40434 24.6525 8.44259 24.6416 8.43166 24.6744C8.42073 24.7073 8.37428 24.7292 8.36062 24.7566C8.34696 24.7839 8.36062 24.8086 8.30051 24.814C8.2404 24.8195 8.22674 24.7785 8.18849 24.7812C8.15024 24.7839 8.16117 24.7812 8.13111 24.8387C8.10106 24.8962 8.07647 24.8962 8.07647 24.9454C8.02729 24.9454 7.92619 24.9208 7.89341 24.9728C7.86062 25.0248 7.9098 25.0823 7.918 25.1261C7.92619 25.1699 7.918 25.2028 7.96445 25.2548C8.01089 25.3068 7.9863 25.3424 8.0027 25.4081H8.07647C8.09286 25.471 8.07647 25.5258 8.12838 25.5751C8.14472 25.5924 8.16474 25.6058 8.18698 25.6144C8.20921 25.6229 8.23307 25.6263 8.2568 25.6243C8.30871 25.6243 8.36335 25.6079 8.4016 25.649C8.42386 25.6765 8.44056 25.7081 8.45078 25.742C8.37975 25.7831 8.34423 25.9638 8.39887 26.0158C8.32783 26.0486 8.2568 26.0514 8.18849 26.076C8.12018 26.1006 8.13658 26.128 8.15844 26.1745C8.12565 26.2019 8.04368 26.2786 8.08193 26.3306C8.12018 26.3826 8.21581 26.3306 8.2568 26.3306C8.35516 26.3087 8.36609 26.3306 8.42893 26.4072C8.44037 26.4204 8.45319 26.4324 8.46718 26.4428C8.46586 26.4556 8.46586 26.4684 8.46718 26.4811C8.46718 26.503 8.48084 26.5386 8.46718 26.5578C8.45352 26.5769 8.39341 26.5578 8.37428 26.5742C8.31265 26.596 8.26084 26.6391 8.22826 26.6959C8.19568 26.7527 8.18448 26.8192 8.19669 26.8835C8.19669 26.9054 8.21308 26.9191 8.21854 26.9438C8.22401 26.9684 8.20215 27.0204 8.21854 27.0478C8.24229 27.07 8.26788 27.0902 8.29505 27.108C8.33876 27.1491 8.36609 27.1874 8.43166 27.1956C8.40893 27.2637 8.39067 27.3332 8.37701 27.4037C8.36863 27.4481 8.37436 27.494 8.39341 27.5351C8.418 27.5706 8.44805 27.5624 8.48084 27.5788C8.56827 27.6254 8.71035 27.7048 8.62018 27.8225C8.58645 27.8534 8.55954 27.8911 8.54119 27.933C8.52284 27.975 8.51345 28.0203 8.51363 28.0661C8.51009 28.1335 8.5315 28.1997 8.57374 28.2523C8.64028 28.2862 8.71598 28.2977 8.78958 28.2851C8.84969 28.2659 8.89068 28.1948 8.94532 28.1674C8.99997 28.14 9.02455 28.1674 9.0874 28.1674C9.15183 28.1689 9.21594 28.1771 9.27865 28.192C9.39341 28.2167 9.37428 28.1017 9.43439 28.0333C9.4945 27.9648 9.50543 28.0141 9.56554 28.0333C9.59146 28.0416 9.61894 28.044 9.64592 28.0402C9.67289 28.0364 9.69865 28.0266 9.72128 28.0114C9.75057 27.969 9.76931 27.9202 9.77592 27.869C9.78353 27.8308 9.80493 27.7967 9.83603 27.7732C9.88794 27.7212 9.88521 27.6418 9.9098 27.5734C9.93439 27.5049 9.95078 27.4557 10.0082 27.4365C10.0655 27.4173 10.0765 27.4365 10.1093 27.4365C10.1994 27.4173 10.2513 27.2202 10.3688 27.3215C10.4317 27.3763 10.4481 27.4748 10.5573 27.431C10.6093 27.4091 10.6338 27.3243 10.683 27.3106C10.7322 27.2969 10.7103 27.3106 10.7486 27.3462C10.7869 27.3818 10.7869 27.3462 10.7978 27.3462C10.8087 27.3462 10.8169 27.3818 10.8306 27.3954C10.8442 27.4091 10.9071 27.4447 10.9644 27.4557C10.9863 27.5159 10.9344 27.5761 10.9399 27.6418C10.9453 27.7075 11.03 27.7677 11.1038 27.7787C11.1776 27.7896 11.2404 27.7595 11.295 27.7787C11.3497 27.7978 11.3825 27.8937 11.4071 27.9457C11.4399 27.9457 11.459 27.9128 11.4808 27.8937C11.532 27.8513 11.5868 27.8138 11.6448 27.7814C11.7131 27.7431 11.7131 27.7458 11.7595 27.7814C11.806 27.817 11.8087 27.8088 11.8661 27.8252C11.9235 27.8416 11.9672 27.8882 12.0573 27.8635C12.1475 27.8389 12.1011 27.8635 12.153 27.8882C12.1966 27.9003 12.2394 27.9149 12.2814 27.932C12.3251 27.9511 12.3634 27.9813 12.3879 27.932C12.4125 27.8827 12.3879 27.8252 12.4016 27.8006C12.4123 27.7413 12.4269 27.6828 12.4453 27.6254C12.5095 27.6353 12.575 27.6296 12.6366 27.609C12.683 27.5843 12.7049 27.5351 12.7377 27.4967C12.7745 27.4526 12.8227 27.4195 12.877 27.4009C13.0027 27.3516 13.2541 27.4557 13.2595 27.2504C13.2595 27.1874 13.2103 27.1436 13.2404 27.0834C13.2666 27.0426 13.3022 27.0088 13.3442 26.9848C13.3852 27.0505 13.4235 27.1244 13.4672 27.1983C13.5109 27.2723 13.5164 27.2887 13.5464 27.3325L13.571 27.3681L13.5956 27.4009C13.605 27.4139 13.6132 27.4276 13.6202 27.442V27.4611V27.4967C13.6283 27.5171 13.6347 27.5382 13.6393 27.5597C13.6406 27.5679 13.6406 27.5762 13.6393 27.5843V27.6172V27.6938C13.6393 27.7458 13.6612 27.8006 13.6776 27.8553C13.6947 27.914 13.7195 27.9702 13.7513 28.0223C13.7896 28.0853 13.8306 28.1428 13.8715 28.1975L13.8879 28.244C13.8879 28.244 13.8879 28.2659 13.8879 28.2742V28.2988C13.918 28.3645 13.9481 28.4247 13.9808 28.4849C14.0409 28.6054 14.1038 28.7149 14.1475 28.8244C14.1487 28.838 14.1487 28.8518 14.1475 28.8654L14.1639 28.9065L14.194 28.9996L14.2103 29.0543V29.1145V29.183C14.2103 29.2624 14.2377 29.3363 14.2486 29.4102C14.2595 29.4841 14.2295 29.5279 14.2213 29.5909L14.2049 29.6949V29.7934L14.1885 29.996C14.1885 30.1356 14.1721 31.1266 14.1666 31.2634C14.1666 31.2634 14.1393 31.2032 14.1256 31.2634C14.112 31.3237 14.0956 31.184 14.1038 31.2634H14.2404C14.2404 31.2908 14.2404 31.2251 14.2677 31.2634C14.295 31.3018 14.3087 31.184 14.3634 31.2634H15V30.1411V30.0973C14.9983 30.0313 14.9872 29.9658 14.9672 29.9029V29.558C14.9712 29.5161 14.9712 29.474 14.9672 29.4321C14.9685 29.4075 14.9685 29.3828 14.9672 29.3582C14.9659 29.3427 14.9659 29.3271 14.9672 29.3116C14.9672 29.2514 14.9672 29.1912 14.9808 29.131C14.9945 29.0707 15.0191 28.9832 15.0409 28.9092C15.0628 28.8353 15.0874 28.7642 15.112 28.693C15.1332 28.6635 15.156 28.6352 15.1803 28.6081C15.1916 28.5923 15.2044 28.5776 15.2185 28.5643L15.2623 28.5205C15.3196 28.4603 15.3797 28.4001 15.4426 28.3453C15.5655 28.2304 15.694 28.1209 15.8251 28.0141L15.8715 27.9758L15.9153 27.9484L16.0273 27.8854L16.0573 27.869L16.0874 27.8499L16.142 27.8143L16.2541 27.7376L16.3606 27.6528L16.459 27.5652L16.653 27.3982L16.847 27.2285L16.9426 27.1436C16.9711 27.1207 17.0023 27.1014 17.0355 27.0861L17.0901 27.0615C17.0982 27.091 17.1037 27.1213 17.1065 27.1518C17.0519 27.1764 16.989 27.1326 16.9317 27.1518C16.8743 27.171 16.8388 27.3297 16.8606 27.3927C16.9043 27.5159 17.0956 27.4338 17.1858 27.4392C17.2759 27.4447 17.2841 27.4858 17.3442 27.5159C17.4106 27.5356 17.4781 27.5511 17.5464 27.5624C17.6146 27.5827 17.6858 27.5911 17.7568 27.5871C17.7731 27.6573 17.7731 27.7303 17.7568 27.8006C17.7372 27.8478 17.7243 27.8976 17.7185 27.9484C17.7683 27.9836 17.8255 28.0069 17.8857 28.0164C17.9458 28.0259 18.0074 28.0214 18.0655 28.0032C18.0846 27.9883 18.1 27.9692 18.1104 27.9473C18.1209 27.9254 18.1261 27.9015 18.1256 27.8772C18.1369 27.8001 18.1204 27.7216 18.0792 27.6555C18.0665 27.6415 18.0508 27.6305 18.0333 27.6234C18.0158 27.6163 17.997 27.6132 17.9781 27.6144C17.9043 27.5871 17.8961 27.5871 17.9235 27.5049C17.9569 27.434 17.9982 27.3669 18.0464 27.3051C18.0628 27.275 18.0683 27.2832 18.0737 27.2476C18.0684 27.1697 18.0343 27.0965 17.9781 27.0423C18.1366 27.0423 18.295 27.0423 18.4535 27.0423C18.497 27.0578 18.539 27.077 18.5792 27.0998V27.1217C18.7049 27.1819 18.7568 27.3297 18.9207 27.3078C18.9945 27.3078 19.0218 27.2421 19.0983 27.2859C19.1556 27.3281 19.1993 27.3862 19.224 27.4529C19.2541 27.5433 19.1803 27.6418 19.3005 27.6856C19.347 27.702 19.4344 27.6856 19.4754 27.7075C19.5201 27.793 19.5497 27.8856 19.5628 27.9813C19.5778 28.0526 19.5778 28.1262 19.5628 28.1975C19.5528 28.2313 19.5473 28.2663 19.5464 28.3015C19.5082 28.3015 19.4726 28.3344 19.4371 28.3344C19.4016 28.3344 19.377 28.2687 19.336 28.2769C19.3114 28.3344 19.1776 28.3645 19.1366 28.3125C19.1394 28.3231 19.14 28.3342 19.1383 28.3451C19.1366 28.3559 19.1327 28.3663 19.1268 28.3756C19.1209 28.3849 19.1131 28.3928 19.104 28.3989C19.0948 28.405 19.0845 28.4091 19.0737 28.411C19.0737 28.411 19.0464 28.3864 19.03 28.3837C19.0136 28.3809 18.9836 28.3837 18.959 28.3837C18.9344 28.3837 18.8907 28.3426 18.8388 28.3535C18.7868 28.3645 18.7486 28.4411 18.7022 28.4904C18.7623 28.4357 18.7377 28.4466 18.7568 28.5315C18.7759 28.6163 18.8169 28.5999 18.8934 28.5999C18.948 28.5958 19.0028 28.5958 19.0573 28.5999C19.1202 28.6163 19.1393 28.7039 19.194 28.7423C19.2486 28.7806 19.2923 28.7642 19.3552 28.7423C19.418 28.7204 19.418 28.7696 19.4699 28.7888C19.5218 28.808 19.5273 28.7669 19.5464 28.7614C19.5737 28.7587 19.6011 28.7587 19.6284 28.7614L19.7049 28.7778C19.724 28.7778 19.7267 28.745 19.7431 28.7395C19.8032 28.7176 19.8032 28.808 19.847 28.8435C19.8675 28.8656 19.8934 28.8818 19.9223 28.8904C19.9511 28.8991 19.9817 28.8999 20.0109 28.8928C20.0642 28.8668 20.1061 28.8219 20.1284 28.7669C20.1284 28.7313 20.1475 28.7395 20.1284 28.693C20.1203 28.664 20.1064 28.637 20.0874 28.6136C20.0539 28.5817 20.0173 28.5532 19.9781 28.5287C19.9399 28.5014 19.8961 28.5068 19.8579 28.4849C19.8196 28.463 19.8142 28.4138 19.7814 28.3782C19.7711 28.3691 19.7602 28.3609 19.7486 28.3535H19.8114C19.8634 28.3535 19.9098 28.3782 19.9644 28.3782C20.1175 28.3782 20.0956 28.1592 20.2377 28.1482C20.2377 28.2085 20.2623 28.2249 20.3142 28.2002C20.3845 28.1338 20.442 28.055 20.4836 27.9676C20.4862 27.9443 20.4808 27.9208 20.4684 27.9009C20.456 27.881 20.4373 27.8659 20.4153 27.8581C20.377 27.8136 20.354 27.7579 20.3497 27.6993C20.3296 27.6067 20.3422 27.51 20.3852 27.4256C20.3852 27.3708 20.4426 27.3462 20.5218 27.3516C20.6537 27.3089 20.7655 27.2193 20.836 27.0998C20.7513 27.0505 20.7595 26.9848 20.8087 26.8918C20.8579 26.7987 20.9289 26.7959 20.9644 26.722C20.9289 26.6509 20.847 26.6426 20.8306 26.566C20.8224 26.5171 20.8224 26.4671 20.8306 26.4182C20.8306 26.3634 20.8579 26.3607 20.8852 26.3059C20.8967 26.2883 20.9041 26.2684 20.9069 26.2476C20.9097 26.2267 20.9079 26.2055 20.9016 26.1855C20.9016 26.1554 20.8442 26.1417 20.8306 26.1143C20.8169 26.087 20.8634 25.9556 20.8114 25.8953C20.8525 25.854 20.8848 25.8049 20.9064 25.7508C20.928 25.6967 20.9384 25.6388 20.9371 25.5805C20.8754 25.555 20.8216 25.5134 20.7814 25.4601C20.8661 25.4765 20.7814 25.3533 20.7814 25.3205C20.7523 25.2844 20.7365 25.2395 20.7365 25.1932C20.7365 25.1469 20.7523 25.1019 20.7814 25.0659C20.8524 24.981 20.9317 25.0194 20.8934 24.888C20.8661 24.8004 20.7759 24.7292 20.7677 24.6416C20.8087 24.5978 20.877 24.5978 20.9125 24.5622C20.9481 24.5266 20.9317 24.5321 20.9371 24.4992C20.9426 24.4664 20.9371 24.4554 20.9371 24.4335H20.9562C20.9917 24.4153 21.0197 24.3853 21.0355 24.3487C20.9726 24.3323 20.8524 24.5075 20.8114 24.5567ZM15.4617 21.1705C15.4617 21.1295 15.4808 21.0884 15.489 21.0446C15.5213 21.0639 15.558 21.0743 15.5956 21.0747C15.6694 21.0747 15.7896 21.0473 15.8688 21.0939C15.895 21.112 15.9151 21.1378 15.9262 21.1678L15.8497 21.2855L15.7568 21.4333C15.7349 21.4662 15.7158 21.499 15.6967 21.5346C15.6468 21.5415 15.5963 21.5415 15.5464 21.5346C15.4975 21.5256 15.4491 21.5138 15.4016 21.499C15.4016 21.4525 15.4207 21.4059 15.4317 21.3594C15.4426 21.3129 15.4481 21.2335 15.4617 21.1705ZM12.4125 25.7311C12.3934 25.6982 12.3934 25.6544 12.3743 25.6216C12.3552 25.5887 12.2759 25.5504 12.2213 25.5121C12.1147 25.4409 12.183 25.3889 12.2213 25.3068C12.2404 25.2712 12.2213 25.2137 12.2513 25.1891C12.2814 25.1644 12.3032 25.1891 12.3278 25.1891C12.3524 25.1891 12.3579 25.1507 12.3852 25.1371C12.4125 25.1234 12.4863 25.1562 12.5355 25.1371C12.5246 25.0245 12.4881 24.9158 12.4289 24.8195C12.4584 24.8112 12.4896 24.8112 12.5191 24.8195V24.8496C12.5344 24.8786 12.5547 24.9045 12.5792 24.9263C12.5969 24.9459 12.6161 24.9642 12.6366 24.981C12.7103 25.0549 12.7841 25.1261 12.847 25.2L12.8907 25.2548C12.9046 25.275 12.9174 25.296 12.9289 25.3177L13.0027 25.4519C13.0546 25.5422 13.1038 25.6325 13.153 25.7256C13.2017 25.8136 13.2437 25.9051 13.2787 25.9994V26.0267C13.2335 26.051 13.1819 26.0606 13.1311 26.0541C13.0765 26.0295 13.0683 25.8899 13.0328 25.8406C12.9972 25.7913 12.8306 25.8406 12.7377 25.8406C12.7049 25.7776 12.6912 25.742 12.6175 25.7311C12.5492 25.7259 12.4807 25.7259 12.4125 25.7311ZM13.5054 25.9063C13.4646 25.8055 13.4152 25.7085 13.3579 25.6161L13.194 25.3424L13.112 25.2082C13.0975 25.1832 13.081 25.1594 13.0628 25.1371L13.0082 25.0714C12.9349 24.9941 12.8573 24.921 12.7759 24.8524L12.7185 24.8031C12.7061 24.7917 12.6951 24.7788 12.6858 24.7648C12.7022 24.7347 12.7103 24.6991 12.7513 24.6854C12.7923 24.6717 12.8114 24.7073 12.8442 24.6115C12.8649 24.5434 12.8973 24.4795 12.9399 24.4226C12.8961 24.4062 12.8169 24.3815 12.8333 24.3213C12.8497 24.2611 13.0082 24.1899 13.0546 24.1598C13.0027 24.1078 12.8989 24.116 12.8306 24.0968C12.7623 24.0777 12.7404 24.0503 12.6912 24.0366C12.6493 24.0242 12.6047 24.0242 12.5628 24.0366C12.5502 24.0485 12.5337 24.0553 12.5164 24.0558C12.4617 24.0394 12.4399 23.9545 12.4453 23.897C12.4508 23.8395 12.4699 23.8286 12.53 23.8176C12.569 23.8122 12.6085 23.8122 12.6475 23.8176C12.6941 23.8159 12.739 23.7996 12.7759 23.7711C12.877 23.7328 12.918 23.8149 13.0109 23.8395H13.0355V23.8833C13.0355 23.9025 13.0355 23.9189 13.0355 23.9381C13.0519 24.0092 13.0737 24.0777 13.0956 24.1434L13.1311 24.2364C13.1448 24.2664 13.1558 24.2976 13.1639 24.3295C13.1639 24.3596 13.1858 24.3897 13.194 24.4199C13.2022 24.45 13.2131 24.4828 13.2185 24.5129C13.2486 24.6306 13.2595 24.7648 13.2869 24.9016L13.3552 25.2958L13.3743 25.3971C13.3743 25.43 13.3743 25.4656 13.3934 25.4984L13.4426 25.6982C13.4644 25.7721 13.4836 25.8461 13.5054 25.92C13.5009 25.9188 13.4964 25.9179 13.4918 25.9172L13.5054 25.9063ZM13.8524 24.3897V24.4363C13.8524 24.5595 13.8524 24.6799 13.8524 24.7976C13.8524 24.7675 13.8524 24.7401 13.8333 24.71V24.6662V24.6224C13.8333 24.5923 13.8333 24.5595 13.8333 24.5266C13.8333 24.4938 13.8333 24.4582 13.8333 24.4226V24.3761V24.3295V24.3131C13.8309 24.3424 13.8328 24.3719 13.8388 24.4007L13.8524 24.3897ZM15.6175 26.3306L15.6502 26.2539C15.638 26.3042 15.6225 26.3536 15.6038 26.4018C15.5847 26.451 15.5628 26.5058 15.5382 26.5551C15.5136 26.6043 15.489 26.6591 15.4644 26.7111V26.733V26.7549C15.4644 26.774 15.4644 26.7905 15.4453 26.8069L15.418 26.8945C15.4185 26.9045 15.4185 26.9146 15.418 26.9246C15.4195 26.9337 15.4195 26.9429 15.418 26.952L15.3743 27.0232C15.3743 27.0396 15.3552 27.0533 15.347 27.0724L15.3278 27.1107C15.3278 27.1354 15.3032 27.1573 15.2923 27.1792L15.2513 27.2421L15.2267 27.2723L15.1994 27.3051L15.1776 27.3325C15.1776 27.3325 15.1776 27.3133 15.1912 27.3051L15.2349 27.212C15.2623 27.1491 15.2868 27.0888 15.3142 27.0286C15.3415 26.9684 15.3634 26.9109 15.3907 26.8562C15.418 26.8014 15.4481 26.7439 15.4781 26.6864C15.4808 26.5824 15.5437 26.4647 15.6038 26.3415L15.6175 26.3306ZM15.5054 25.8543C15.4781 25.9282 15.4644 25.9939 15.4453 26.0486C15.4442 26.0614 15.4442 26.0742 15.4453 26.087V26.1034V26.1253L15.4043 26.2101C15.347 26.3196 15.2814 26.4319 15.2158 26.5468C15.183 26.6043 15.1475 26.6618 15.1175 26.722C15.0874 26.7823 15.0546 26.8452 15.0273 26.9054L14.9426 27.0806V27.0971C14.9426 27.0423 14.959 26.9821 14.9672 26.9219C14.9918 26.7795 15.0054 26.6481 15.0328 26.5222C15.0601 26.3963 15.0956 26.2485 15.1229 26.1143C15.1502 25.9802 15.1639 25.8981 15.183 25.7913C15.228 25.8116 15.2746 25.8281 15.3224 25.8406C15.3397 25.8441 15.3578 25.8417 15.3736 25.8338C15.3895 25.8259 15.4022 25.8128 15.4098 25.7968C15.4182 25.7896 15.4288 25.7857 15.4399 25.7857C15.4509 25.7857 15.4615 25.7896 15.4699 25.7968C15.496 25.8022 15.523 25.8022 15.5491 25.7968H15.5655L15.5054 25.8543ZM13.2896 24.0394C13.3704 24.0569 13.4528 24.066 13.5355 24.0667H13.5819C13.5819 24.0941 13.5819 24.1187 13.5819 24.1461C13.5819 24.2145 13.5819 24.283 13.5819 24.3542C13.5833 24.3715 13.5833 24.3889 13.5819 24.4062V24.4554C13.5819 24.4856 13.5819 24.5157 13.5819 24.5485C13.5819 24.5814 13.5819 24.6142 13.5819 24.6498C13.5806 24.6671 13.5806 24.6845 13.5819 24.7018C13.5819 24.721 13.5819 24.7401 13.5819 24.7566L13.6147 24.9454C13.6147 24.9756 13.6147 25.0057 13.6147 25.0358C13.6147 25.0659 13.6147 25.096 13.6147 25.1289C13.6147 25.1617 13.6147 25.1973 13.6147 25.2356V25.2931V25.3424L13.6311 25.4437V25.4875C13.6311 25.5039 13.6311 25.5176 13.6311 25.534C13.6354 25.5932 13.6354 25.6527 13.6311 25.7119V25.8023C13.6147 25.7502 13.6011 25.6982 13.5847 25.6462C13.5683 25.5942 13.5464 25.5203 13.53 25.4601C13.5136 25.3999 13.5164 25.3971 13.5082 25.3643L13.4863 25.2685L13.4043 24.8743C13.3743 24.7511 13.3606 24.6169 13.3224 24.4773L13.3879 24.3843C13.3879 24.3514 13.3661 24.3186 13.3524 24.2857C13.3388 24.2529 13.3278 24.2228 13.3169 24.1899L13.2759 24.0886C13.2712 24.0707 13.2648 24.0533 13.2568 24.0366L13.2896 24.0394ZM16.1776 26.0897V26.1061V26.1417V26.0897ZM12.6612 21.2526C12.6342 21.2695 12.6026 21.2772 12.571 21.2745C12.5722 21.2554 12.5722 21.2362 12.571 21.2171L12.6612 21.2526ZM16.9699 21.5647C16.9489 21.576 16.9254 21.5819 16.9016 21.5819C16.8778 21.5819 16.8543 21.576 16.8333 21.5647C16.7738 21.5363 16.7171 21.5024 16.6639 21.4634C16.689 21.4532 16.7108 21.4362 16.7267 21.4142C16.765 21.3539 16.7595 21.2718 16.7896 21.2116C16.8196 21.1514 16.8442 21.1486 16.8634 21.1103C16.8645 21.0985 16.8645 21.0866 16.8634 21.0747C16.8807 21.084 16.899 21.0913 16.918 21.0966C16.9836 21.1185 17.1065 21.0966 17.142 21.1404C17.1546 21.1662 17.1656 21.1927 17.1748 21.2198L17.1202 21.2773C17.0468 21.3589 16.9951 21.4578 16.9699 21.5647ZM16.0136 21.4361V21.4525L15.7868 21.5154C15.7868 21.5154 15.8005 21.4908 15.806 21.4799L15.8961 21.3293L15.9317 21.2691C15.9449 21.3306 15.973 21.388 16.0136 21.4361ZM14.6666 25.6216C14.6338 25.8953 14.6284 26.1362 14.6065 26.3799C14.6065 26.41 14.6065 26.4428 14.6065 26.4729V26.5633L14.5847 26.7521V26.848C14.5758 26.8702 14.5684 26.8931 14.5628 26.9164C14.5437 26.9711 14.5246 27.0259 14.5082 27.0834V27.1217C14.5093 27.1335 14.5093 27.1454 14.5082 27.1573L14.4808 27.2339C14.4508 27.3078 14.418 27.3872 14.3907 27.4748L14.3634 27.338L14.3415 27.2394C14.3415 27.2093 14.3415 27.1764 14.3415 27.1436C14.3415 27.1108 14.3415 27.0013 14.3114 26.9219C14.2908 26.7934 14.2817 26.6633 14.2841 26.5332V26.0048C14.2841 25.9665 14.2841 25.9282 14.2841 25.8899C14.2841 25.8515 14.2677 25.7475 14.2623 25.6818C14.2623 25.6654 14.2623 25.649 14.2623 25.6325L14.2377 25.5778C14.2377 25.5395 14.2049 25.5039 14.2049 25.4656L14.3196 25.1124C14.3623 25.0991 14.4081 25.0991 14.4508 25.1124C14.5082 25.1316 14.5847 25.2164 14.6475 25.211C14.7103 25.2055 14.7022 25.1508 14.7541 25.1781C14.7756 25.1916 14.7942 25.2093 14.8087 25.2301C14.7022 25.367 14.683 25.4929 14.6666 25.6216ZM14.1502 21.833V21.8987C14.1502 21.8987 14.1502 21.8987 14.1502 21.9178C14.1502 21.937 14.1502 21.9397 14.1502 21.9534L14.1338 21.9178C14.1093 21.8713 14.0847 21.833 14.0601 21.7947V21.7344C14.0863 21.7474 14.1156 21.7531 14.1448 21.7509C14.1482 21.7781 14.15 21.8055 14.1502 21.833ZM11.7267 20.1385C11.7868 20.1577 11.836 20.1385 11.8934 20.1632C11.9508 20.1878 11.9617 20.2179 12.0218 20.1933C12.0372 20.1871 12.0512 20.1777 12.0628 20.1659C12.0792 20.1987 12.1011 20.1987 12.1393 20.2124C12.2257 20.2363 12.301 20.2895 12.3524 20.363C12.3934 20.4314 12.4016 20.4697 12.3524 20.53C12.3457 20.5395 12.3374 20.5478 12.3278 20.5546L12.1994 20.5026C12.1734 20.4777 12.1428 20.4581 12.1093 20.4451H12.0601H12.0355C11.9172 20.3927 11.8166 20.3072 11.7459 20.1987C11.7357 20.1829 11.7266 20.1665 11.7185 20.1495L11.7267 20.1385ZM18.8306 22.3066C18.8497 22.4215 18.765 22.427 18.694 22.5037C18.6872 22.5159 18.678 22.5267 18.6669 22.5353C18.6559 22.5439 18.6432 22.5501 18.6297 22.5537C18.6162 22.5573 18.6021 22.5581 18.5882 22.5561C18.5744 22.5541 18.5611 22.5493 18.5491 22.542C18.4415 22.4474 18.3411 22.3449 18.2486 22.2354C18.2738 22.2299 18.2999 22.2299 18.3251 22.2354C18.2988 22.2315 18.2721 22.2315 18.2459 22.2354C18.2007 22.1728 18.1464 22.1174 18.0847 22.0711C18.019 22.044 17.9588 22.005 17.9071 21.9562C17.8486 21.8986 17.7939 21.8373 17.7431 21.7728C17.7566 21.7471 17.7731 21.7233 17.7923 21.7016C17.811 21.6811 17.8311 21.6619 17.8524 21.6441C17.9421 21.5688 18.0391 21.5028 18.142 21.447C18.2076 21.4087 18.2759 21.3758 18.3442 21.343C18.4043 21.4224 18.4945 21.4799 18.5491 21.5592C18.6048 21.6632 18.6294 21.7811 18.6202 21.8987C18.5874 21.9753 18.5983 22.0328 18.6502 22.0684C18.6744 22.0963 18.707 22.1155 18.7431 22.1232C18.7897 22.1737 18.8185 22.2381 18.8251 22.3066H18.8306ZM18.3306 21.2992C18.2595 21.3293 18.1912 21.3594 18.1256 21.3923C18.0194 21.4461 17.9187 21.5102 17.8251 21.5839C17.7996 21.6016 17.7758 21.6218 17.7541 21.6441L17.6994 21.718C17.6718 21.6996 17.6413 21.6857 17.6093 21.677C17.5329 21.6592 17.4534 21.6592 17.377 21.677C17.321 21.6642 17.2662 21.6468 17.2131 21.6249C17.1563 21.5896 17.0913 21.5698 17.0246 21.5675C17.0503 21.475 17.097 21.3897 17.1612 21.3183L17.2049 21.2691C17.2404 21.3019 17.2705 21.2937 17.3142 21.2937C17.3579 21.2937 17.3879 21.2937 17.4235 21.2937C17.459 21.2937 17.4972 21.2663 17.5328 21.2718C17.5683 21.2773 17.6229 21.3649 17.6967 21.3758C17.7705 21.3868 17.8388 21.3348 17.8797 21.2663C17.9207 21.1979 17.9153 21.2061 17.9344 21.1787C17.9535 21.1514 17.9344 21.1377 17.9945 21.1295C18.0546 21.1213 18.1202 21.1295 18.1694 21.0638H18.1912C18.2623 21.1213 18.2814 21.2307 18.3251 21.2992H18.3306ZM16.7787 18.6932C16.8415 18.6932 16.9098 18.7534 16.9644 18.7479C17.0054 18.6275 17.1502 18.6658 17.2377 18.6904C17.2787 18.6904 17.3388 18.6904 17.3743 18.7205C17.4098 18.7506 17.3989 18.7972 17.4207 18.8328C17.4426 18.8683 17.4808 18.8766 17.459 18.9587C17.4371 19.0408 17.4125 19.0873 17.4016 19.1503C17.3961 19.1691 17.3961 19.189 17.4016 19.2078C17.2855 19.1928 17.168 19.1928 17.0519 19.2078C17.0261 19.1874 16.9987 19.169 16.9699 19.153C16.8934 19.0956 16.9699 19.0737 16.9508 19.008C16.8797 19.008 16.795 18.9861 16.7541 18.9204C16.7358 18.8845 16.7279 18.8442 16.7313 18.804C16.7347 18.7639 16.7492 18.7255 16.7732 18.6932H16.7787ZM14.9836 20.7161C15.0655 20.7161 15.1093 20.7161 15.1502 20.7873C15.1912 20.8585 15.1666 20.894 15.2185 20.9269C15.2705 20.9597 15.3142 20.9433 15.3552 20.9597L15.4016 20.9844C15.3879 21.0391 15.377 21.0911 15.3634 21.1459C15.3497 21.2006 15.3306 21.2663 15.3114 21.3266C15.2923 21.3868 15.2869 21.4196 15.2759 21.4634C15.1958 21.4409 15.1132 21.4281 15.03 21.4251H14.9317C14.898 21.3512 14.8714 21.2742 14.8524 21.1952V21.1459C14.8524 21.1459 14.8524 21.1158 14.8524 21.0994V20.9981C14.8524 20.9269 14.8524 20.8585 14.8524 20.79V20.738C14.8934 20.7263 14.9356 20.719 14.9781 20.7161H14.9836ZM14.5437 20.7161C14.6311 20.7161 14.6666 20.7928 14.724 20.8256C14.724 20.8256 14.6994 20.8256 14.7049 20.8064C14.7049 20.8694 14.6721 20.9351 14.6721 20.9981V21.0501L14.7049 21.0775L14.7185 21.1048C14.7173 21.1231 14.7173 21.1413 14.7185 21.1596C14.7173 21.1778 14.7173 21.1961 14.7185 21.2143C14.7311 21.2865 14.7513 21.3572 14.7787 21.4251H14.7541L14.7213 21.3676C14.6963 21.326 14.6779 21.2807 14.6666 21.2335C14.6666 21.1924 14.6666 21.1623 14.6666 21.124C14.6666 21.0857 14.5546 21.0528 14.5355 20.9871C14.5203 20.8973 14.5212 20.8056 14.5382 20.7161H14.5437ZM14.5082 21.7782H14.53C14.5996 21.9109 14.6581 22.0492 14.7049 22.1916V22.3011C14.7049 22.3504 14.7049 22.3805 14.6612 22.3914C14.5464 22.4982 14.3142 22.3695 14.2322 22.2847L14.2076 22.26L14.2322 22.1587V22.1423C14.2309 22.136 14.2309 22.1295 14.2322 22.1232C14.2337 22.1113 14.2337 22.0994 14.2322 22.0876C14.2322 22.0684 14.2322 22.0547 14.2322 22.0492V22.0328C14.2313 22.0255 14.2313 22.0182 14.2322 22.0109C14.2332 21.9927 14.2332 21.9744 14.2322 21.9562C14.2322 21.9562 14.2322 21.9343 14.2322 21.9233V21.8412C14.2335 21.8175 14.2335 21.7937 14.2322 21.77L14.5082 21.7782ZM10.459 20.1358C10.4875 20.0292 10.5475 19.9338 10.6311 19.862C10.6582 19.8356 10.6944 19.8208 10.7322 19.8208C10.77 19.8208 10.8063 19.8356 10.8333 19.862C10.8606 19.8264 11.0655 19.8319 11.1065 19.8429C11.1146 19.8405 11.1231 19.8405 11.1311 19.8429C11.1065 19.8976 11.0901 19.9606 11.1475 19.9907C11.1881 20.0077 11.232 20.0152 11.2759 20.0126C11.2891 20.0386 11.3076 20.0616 11.3302 20.0799C11.3528 20.0983 11.379 20.1118 11.4071 20.1194C11.4262 20.0783 11.4426 20.0372 11.459 19.9962C11.5185 19.9893 11.5783 20.006 11.6256 20.0427C11.6502 20.0619 11.6694 20.0892 11.6912 20.1084C11.7002 20.1378 11.7121 20.1662 11.7267 20.1933C11.7595 20.2528 11.8031 20.3057 11.8552 20.3493C11.8872 20.3781 11.922 20.4038 11.959 20.4259C11.9441 20.4158 11.9286 20.4067 11.9125 20.3986C11.8606 20.3767 11.8032 20.3712 11.7513 20.3548C11.6994 20.3383 11.6994 20.3548 11.6038 20.3548C11.5573 20.3548 11.5136 20.3548 11.4672 20.3548C11.4207 20.3548 11.295 20.4095 11.194 20.3821C11.0929 20.3548 11.1175 20.3028 11.0655 20.311L11.0027 20.3657C10.9615 20.4057 10.9156 20.4406 10.8661 20.4697C10.7923 20.4999 10.7732 20.5053 10.7131 20.4478C10.653 20.3904 10.5819 20.3575 10.5218 20.3055C10.4948 20.2854 10.474 20.258 10.4619 20.2265C10.4498 20.195 10.4469 20.1607 10.4535 20.1276L10.459 20.1358ZM8.46991 25.8159V25.7995C8.46991 25.7995 8.46991 25.8105 8.46991 25.8159ZM9.56281 26.6728C9.51661 26.6796 9.46966 26.6796 9.42346 26.6728C9.38723 26.6782 9.3504 26.6782 9.31417 26.6728C9.25399 26.646 9.20548 26.5984 9.17756 26.5386C9.14751 26.4757 9.14751 26.4565 9.071 26.4592C8.9945 26.462 8.91527 26.4373 8.87155 26.4757C8.84696 26.4456 8.85789 26.4127 8.82783 26.3826C8.80141 26.3668 8.77289 26.3548 8.74313 26.347C8.7439 26.3154 8.7544 26.2848 8.77319 26.2594C8.81144 26.2211 8.89341 26.2402 8.94532 26.2402C8.97258 26.243 9.00003 26.243 9.02729 26.2402C9.05734 26.2402 9.06281 26.1964 9.0874 26.1882C9.11199 26.18 9.12018 26.1882 9.15297 26.2211C9.18046 26.2362 9.2121 26.242 9.24313 26.2375C9.34969 26.2375 9.38248 26.2375 9.46445 26.2923C9.54641 26.347 9.56007 26.358 9.5792 26.462C9.59833 26.566 9.60925 26.6372 9.56281 26.6728ZM16.9399 26.9629C16.8945 26.9828 16.8514 27.0076 16.8114 27.0368L16.7076 27.1162L16.5054 27.275L16.3005 27.4365L16.1994 27.5159C16.1694 27.5378 16.1366 27.5624 16.1011 27.5843L15.9972 27.65L15.9426 27.6801L15.9153 27.6966H15.8907L15.7732 27.754L15.7076 27.7924L15.6502 27.8334L15.6666 27.8143L15.6885 27.7896L15.7158 27.7623L15.7787 27.6966C15.8524 27.609 15.9071 27.5186 15.9644 27.4392L16.0082 27.3818L16.0328 27.3516L16.0573 27.3188C16.0901 27.2723 16.1202 27.2257 16.1502 27.1792C16.2049 27.0834 16.2513 26.9903 16.2978 26.9054C16.3442 26.8206 16.3688 26.7631 16.4016 26.6919C16.4617 26.6618 16.5191 26.618 16.5737 26.6426C16.6284 26.6673 16.6366 26.7111 16.6776 26.7302C16.7091 26.7371 16.7417 26.7371 16.7732 26.7302C16.8121 26.7238 16.8521 26.7287 16.8884 26.7442C16.9247 26.7597 16.9558 26.7852 16.9781 26.8178C16.9968 26.8471 17.0124 26.8783 17.0246 26.9109L16.9399 26.9629ZM17.0819 27.171C17.0819 27.171 17.0819 27.1545 17.0819 27.1463C17.0806 27.155 17.0778 27.1633 17.0737 27.171H17.0819Z" fill="white"/>
<path d="M27.9754 18.4339V17.9767C27.9754 17.8482 27.9245 17.725 27.8338 17.6341C27.7431 17.5432 27.6201 17.4922 27.4918 17.4922H25.9973C25.869 17.4922 25.746 17.5432 25.6553 17.6341C25.5646 17.725 25.5137 17.8482 25.5137 17.9767V31.6338H36.5328" stroke="white" stroke-width="1.21311" stroke-miterlimit="10"/>
<path d="M31.5353 17.1306V16.6078C31.5323 16.4833 31.5787 16.3628 31.6642 16.2725C31.7497 16.1823 31.8674 16.1296 31.9916 16.126H33.6473C33.7715 16.1296 33.8892 16.1823 33.9747 16.2725C34.0602 16.3628 34.1065 16.4833 34.1036 16.6078V28.1625" stroke="white" stroke-width="0.808743" stroke-miterlimit="10"/>
<path d="M32.7543 18.1214V18.4855H32.5576V18.6142H32.7653C32.7943 18.6142 32.8221 18.6026 32.8425 18.5821C32.863 18.5616 32.8746 18.5337 32.8746 18.5047V18.1105C32.8746 18.0814 32.863 18.0536 32.8425 18.033C32.8221 18.0125 32.7943 18.001 32.7653 18.001H32.5576V18.1214H32.7543Z" fill="white"/>
<path d="M30.0323 18.4855V18.1214H30.199V18.001H30.0214C29.9924 18.001 29.9646 18.0125 29.9441 18.033C29.9236 18.0536 29.9121 18.0814 29.9121 18.1105V18.4965C29.9121 18.5255 29.9236 18.5533 29.9441 18.5739C29.9646 18.5944 29.9924 18.6059 30.0214 18.6059H30.199V18.4855H30.0323Z" fill="white"/>
<path d="M30.0323 20.0482V19.6869H30.199V19.5664H30.0214C29.9929 19.5664 29.9655 19.5776 29.9451 19.5975C29.9246 19.6174 29.9128 19.6446 29.9121 19.6732V20.0619C29.9121 20.0909 29.9236 20.1188 29.9441 20.1393C29.9646 20.1598 29.9924 20.1714 30.0214 20.1714H30.199V20.0482H30.0323Z" fill="white"/>
<path d="M32.7543 19.6869V20.0482H32.5576V20.1714H32.7653C32.7943 20.1714 32.8221 20.1598 32.8425 20.1393C32.863 20.1188 32.8746 20.0909 32.8746 20.0619V19.6732C32.8738 19.6446 32.862 19.6174 32.8416 19.5975C32.8212 19.5776 32.7938 19.5664 32.7653 19.5664H32.5576V19.6869H32.7543Z" fill="white"/>
<path d="M32.7543 21.2531V21.6254H32.5576V21.7458H32.7653C32.7938 21.7458 32.8212 21.7347 32.8416 21.7147C32.862 21.6948 32.8738 21.6676 32.8746 21.639V21.2394C32.8746 21.2103 32.863 21.1825 32.8425 21.162C32.8221 21.1414 32.7943 21.1299 32.7653 21.1299H32.5576V21.2531H32.7543Z" fill="white"/>
<path d="M30.0323 21.6254V21.2531H30.199V21.1299H30.0214C29.9924 21.1299 29.9646 21.1414 29.9441 21.162C29.9236 21.1825 29.9121 21.2103 29.9121 21.2394V21.6254C29.9128 21.6539 29.9246 21.6811 29.9451 21.701C29.9655 21.721 29.9929 21.7321 30.0214 21.7321H30.199V21.6254H30.0323Z" fill="white"/>
<path d="M32.7379 22.7748V23.1361H32.5576V23.2675H32.7516C32.7658 23.2679 32.78 23.2654 32.7932 23.2602C32.8065 23.255 32.8185 23.2472 32.8287 23.2372C32.8389 23.2273 32.847 23.2154 32.8525 23.2023C32.8581 23.1891 32.8609 23.175 32.8609 23.1608V22.7611C32.8609 22.7468 32.8581 22.7327 32.8525 22.7196C32.847 22.7065 32.8389 22.6946 32.8287 22.6846C32.8185 22.6747 32.8065 22.6669 32.7932 22.6617C32.78 22.6565 32.7658 22.654 32.7516 22.6543H32.5576V22.7748H32.7379Z" fill="white"/>
<path d="M30.0187 23.1361V22.7748H30.199V22.6543H30.0077C29.9935 22.654 29.9794 22.6565 29.9661 22.6617C29.9529 22.6669 29.9408 22.6747 29.9306 22.6846C29.9204 22.6946 29.9123 22.7065 29.9068 22.7196C29.9013 22.7327 29.8984 22.7468 29.8984 22.7611V23.1498C29.8984 23.1641 29.9013 23.1782 29.9068 23.1913C29.9123 23.2044 29.9204 23.2163 29.9306 23.2263C29.9408 23.2362 29.9529 23.244 29.9661 23.2492C29.9794 23.2544 29.9935 23.2569 30.0077 23.2566H30.199V23.1361H30.0187Z" fill="white"/>
<path d="M32.5571 24.2969H30.1992V24.661H32.5571V24.2969Z" fill="white"/>
<path d="M32.5571 22.7754H30.1992V23.1395H32.5571V22.7754Z" fill="white"/>
<path d="M32.5571 20.1719H30.1992V21.1327H32.5571V20.1719Z" fill="white"/>
<path d="M32.5571 17.9272C32.4637 17.6903 32.3013 17.4871 32.091 17.3438C31.8808 17.2006 31.6324 17.124 31.3782 17.124C31.1239 17.124 30.8756 17.2006 30.6653 17.3438C30.4551 17.4871 30.2927 17.6903 30.1992 17.9272V18.0011H32.5571V17.9272Z" fill="white"/>
<path d="M32.5571 18.1211H30.1992V18.4852H32.5571V18.1211Z" fill="white"/>
<path d="M32.5571 18.6055H30.1992V19.5663H32.5571V18.6055Z" fill="white"/>
<path d="M32.5571 19.6875H30.1992V20.0516H32.5571V19.6875Z" fill="white"/>
<path d="M32.5571 21.7344H30.1992V22.6514H32.5571V21.7344Z" fill="white"/>
<path d="M32.5571 21.2529H30.1992V21.617H32.5571V21.2529Z" fill="white"/>
<path d="M32.5571 23.2568H30.1992V24.1739H32.5571V23.2568Z" fill="white"/>
<path d="M32.5571 24.7812H30.1992V31.6358H32.5571V24.7812Z" fill="white"/>
<path d="M30.0323 24.6585V24.2972H30.199V24.1768H30.0214C29.9929 24.1767 29.9655 24.1879 29.9451 24.2079C29.9246 24.2278 29.9128 24.255 29.9121 24.2835V24.6722C29.9121 24.6866 29.9149 24.7009 29.9204 24.7141C29.9259 24.7274 29.934 24.7395 29.9441 24.7497C29.9543 24.7598 29.9663 24.7679 29.9796 24.7734C29.9928 24.7789 30.007 24.7817 30.0214 24.7817H30.199V24.6585H30.0323Z" fill="white"/>
<path d="M32.7543 24.2972V24.6585H32.5576V24.7817H32.7653C32.7943 24.7817 32.8221 24.7702 32.8425 24.7497C32.863 24.7291 32.8746 24.7013 32.8746 24.6722V24.2835C32.8738 24.255 32.862 24.2278 32.8416 24.2079C32.8212 24.1879 32.7938 24.1767 32.7653 24.1768H32.5576V24.2972H32.7543Z" fill="white"/>
<path d="M26.7538 19.5919V19.2771H26.9341V19.1621H26.7401C26.7112 19.1621 26.6834 19.1736 26.6629 19.1942C26.6424 19.2147 26.6309 19.2426 26.6309 19.2716V19.611C26.6309 19.6254 26.6337 19.6397 26.6392 19.653C26.6447 19.6662 26.6527 19.6783 26.6629 19.6885C26.673 19.6986 26.6851 19.7067 26.6983 19.7122C26.7116 19.7177 26.7258 19.7205 26.7401 19.7205H26.9314V19.6001L26.7538 19.5919Z" fill="white"/>
<path d="M29.035 19.2765H29.1934V19.5913H29.035V19.709H29.2044C29.2333 19.709 29.2611 19.6975 29.2816 19.6769C29.3021 19.6564 29.3136 19.6286 29.3136 19.5995V19.2628C29.3136 19.2338 29.3021 19.2059 29.2816 19.1854C29.2611 19.1649 29.2333 19.1533 29.2044 19.1533H29.0322V19.2765H29.035Z" fill="white"/>
<path d="M29.1936 20.7025V21.0173H29.0352V21.1377H29.2046C29.2189 21.1377 29.2331 21.1349 29.2464 21.1294C29.2596 21.1239 29.2717 21.1158 29.2818 21.1057C29.292 21.0955 29.3 21.0834 29.3055 21.0701C29.311 21.0569 29.3138 21.0426 29.3138 21.0282V20.6915C29.3138 20.6625 29.3023 20.6346 29.2818 20.6141C29.2613 20.5936 29.2335 20.582 29.2046 20.582H29.0352V20.7025H29.1936Z" fill="white"/>
<path d="M26.754 21.0173V20.7025H26.9343V20.582H26.7431C26.7141 20.582 26.6863 20.5936 26.6658 20.6141C26.6453 20.6346 26.6338 20.6625 26.6338 20.6915V21.0282C26.6338 21.0573 26.6453 21.0851 26.6658 21.1057C26.6863 21.1262 26.7141 21.1377 26.7431 21.1377H26.9343V21.0173H26.754Z" fill="white"/>
<path d="M26.754 22.4468V22.1292H26.9343V22.0088H26.7431C26.7287 22.0088 26.7145 22.0116 26.7013 22.0171C26.688 22.0226 26.6759 22.0307 26.6658 22.0409C26.6557 22.051 26.6476 22.0631 26.6421 22.0764C26.6366 22.0897 26.6338 22.1039 26.6338 22.1183V22.4468C26.6338 22.461 26.6366 22.4751 26.6422 22.4883C26.6477 22.5014 26.6558 22.5133 26.666 22.5233C26.6761 22.5332 26.6882 22.541 26.7015 22.5462C26.7147 22.5514 26.7289 22.5539 26.7431 22.5535H26.9343V22.4468H26.754Z" fill="white"/>
<path d="M29.1936 22.1292V22.4468H29.0352V22.5672H29.2046C29.2188 22.5676 29.2329 22.5651 29.2462 22.5599C29.2594 22.5547 29.2715 22.5469 29.2817 22.5369C29.2919 22.527 29.3 22.5151 29.3055 22.502C29.311 22.4888 29.3139 22.4747 29.3138 22.4605V22.1183C29.3138 22.0892 29.3023 22.0614 29.2818 22.0409C29.2613 22.0203 29.2335 22.0088 29.2046 22.0088H29.0352V22.1292H29.1936Z" fill="white"/>
<path d="M26.754 23.8698V23.5578H26.9343V23.4346H26.7431C26.7141 23.4346 26.6863 23.4461 26.6658 23.4666C26.6453 23.4872 26.6338 23.515 26.6338 23.5441V23.8835C26.6338 23.9125 26.6453 23.9404 26.6658 23.9609C26.6863 23.9815 26.7141 23.993 26.7431 23.993H26.9343V23.8698H26.754Z" fill="white"/>
<path d="M29.1936 23.5576V23.8696H29.0352V23.9928H29.2046C29.2335 23.9928 29.2613 23.9813 29.2818 23.9607C29.3023 23.9402 29.3138 23.9124 29.3138 23.8833V23.5411C29.3138 23.5121 29.3023 23.4842 29.2818 23.4637C29.2613 23.4432 29.2335 23.4316 29.2046 23.4316H29.0352V23.5548L29.1936 23.5576Z" fill="white"/>
<path d="M29.0357 24.9131H26.9346V25.2279H29.0357V24.9131Z" fill="white"/>
<path d="M29.0357 23.5576H26.9346V23.8724H29.0357V23.5576Z" fill="white"/>
<path d="M29.0357 22.5645H26.9346V23.435H29.0357V22.5645Z" fill="white"/>
<path d="M29.0357 20.7031H26.9346V21.0179H29.0357V20.7031Z" fill="white"/>
<path d="M29.0357 21.1377H26.9346V22.0082H29.0357V21.1377Z" fill="white"/>
<path d="M29.0357 19.2764H26.9346V19.5912H29.0357V19.2764Z" fill="white"/>
<path d="M28.0216 18.4306C27.786 18.4167 27.5522 18.4795 27.3552 18.6098C27.1582 18.7401 27.0086 18.9307 26.9287 19.1533H29.0243C28.9518 18.9441 28.8165 18.7624 28.6371 18.633C28.4576 18.5037 28.2427 18.433 28.0216 18.4306Z" fill="white"/>
<path d="M29.0357 19.7119H26.9346V20.5824H29.0357V19.7119Z" fill="white"/>
<path d="M29.0357 22.1289H26.9346V22.4437H29.0357V22.1289Z" fill="white"/>
<path d="M29.0357 23.9932H26.9346V24.7952H29.0357V23.9932Z" fill="white"/>
<path d="M29.0357 25.3486H26.9346V31.6338H29.0357V25.3486Z" fill="white"/>
<path d="M26.754 25.228V24.9105H26.9343V24.79H26.7431C26.7141 24.79 26.6863 24.8016 26.6658 24.8221C26.6453 24.8426 26.6338 24.8705 26.6338 24.8995V25.239C26.6338 25.2532 26.6366 25.2673 26.6422 25.2805C26.6477 25.2936 26.6558 25.3055 26.666 25.3155C26.6761 25.3254 26.6882 25.3332 26.7015 25.3384C26.7147 25.3436 26.7289 25.3461 26.7431 25.3457H26.9343V25.2253L26.754 25.228Z" fill="white"/>
<path d="M29.1936 24.9103V25.2251H29.0352V25.3455H29.2046C29.2188 25.3459 29.2329 25.3434 29.2462 25.3382C29.2594 25.333 29.2715 25.3252 29.2817 25.3152C29.2919 25.3053 29.3 25.2934 29.3055 25.2803C29.311 25.2671 29.3139 25.253 29.3138 25.2388V24.9103C29.3138 24.8812 29.3023 24.8534 29.2818 24.8329C29.2613 24.8123 29.2335 24.8008 29.2046 24.8008H29.0352V24.9103H29.1936Z" fill="white"/>
<path d="M26.9342 28.1624H24.7129V25.8301H26.9342" stroke="white" stroke-width="0.808743" stroke-miterlimit="10"/>
<path d="M32.5576 25.8301H36.533V28.1624H32.5576" stroke="white" stroke-width="0.808743" stroke-miterlimit="10"/>
<path d="M30.2018 28.1621H29.0352" stroke="white" stroke-width="0.808743" stroke-miterlimit="10"/>
<path d="M30.2018 25.8301H29.0352" stroke="white" stroke-width="0.808743" stroke-miterlimit="10"/>
<path d="M35.1143 25.8301V28.1624" stroke="white" stroke-width="0.808743" stroke-miterlimit="10"/>
<path d="M34.1064 27.3086H35.1146" stroke="white" stroke-width="0.808743" stroke-miterlimit="10"/>
<path d="M32.5576 19.2168H34.7461" stroke="white" stroke-width="0.808743" stroke-miterlimit="10"/>
<path d="M32.5576 20.6504H34.7461" stroke="white" stroke-width="0.808743" stroke-miterlimit="10"/>
<path d="M35.0297 28.4688C34.7318 28.4682 34.4405 28.5562 34.1925 28.7216C33.9446 28.887 33.7512 29.1224 33.6369 29.398C33.5225 29.6735 33.4923 29.9769 33.5501 30.2697C33.6079 30.5624 33.751 30.8314 33.9615 31.0427C34.1719 31.2539 34.4401 31.3978 34.7322 31.4562C35.0243 31.5146 35.3272 31.4849 35.6024 31.3708C35.8777 31.2568 36.113 31.0634 36.2785 30.8153C36.4441 30.5672 36.5324 30.2755 36.5324 29.9771C36.5328 29.7791 36.4942 29.5831 36.4188 29.4001C36.3435 29.2171 36.2328 29.0508 36.0932 28.9107C35.9537 28.7706 35.7879 28.6595 35.6054 28.5836C35.4229 28.5078 35.2273 28.4688 35.0297 28.4688ZM35.8494 29.29C35.8084 29.394 35.6144 29.3393 35.3821 29.2489C35.1499 29.1586 34.9614 29.0655 35.0024 28.9752C35.0433 28.8848 35.2947 28.8027 35.5297 28.8931C35.7647 28.9834 35.8794 29.1832 35.8412 29.29H35.8494Z" fill="white" stroke="white" stroke-width="0.202186" stroke-miterlimit="10"/>
<path d="M6.24316 3.60483C6.24316 3.60483 22.418 -3.893 41.0082 3.60483C41.0082 3.60483 40.929 16.6076 40.888 21.6253C40.765 36.2596 23.6257 42.3066 23.6257 42.3066C23.6257 42.3066 6.48633 36.5005 6.36338 21.8662C6.3224 16.8485 6.24316 3.60483 6.24316 3.60483Z" stroke="white" stroke-width="0.808743" stroke-miterlimit="10"/>
<path d="M23.626 42.3063V16.4239L41.0085 3.60449" stroke="white" stroke-width="0.808743" stroke-miterlimit="10"/>
<path d="M6.24316 3.60449L23.6257 16.4239" stroke="white" stroke-width="0.808743" stroke-miterlimit="10"/>
<path d="M2.89331 33.4698C2.89331 33.4698 8.41517 41.964 10.9288 42.1337C10.9288 42.1337 14.6283 40.8526 15.243 42.3062C15.8578 43.7598 14.6665 43.6284 15.1993 44.1841C15.7321 44.7398 23.866 46.7436 31.9616 44.1841C31.9616 44.1841 31.2212 42.6894 31.5491 42.3062C31.8769 41.923 33.0245 41.6218 35.4316 42.3062C37.8387 42.9906 41.9398 36.9244 44.1966 33.0811C44.1966 33.0811 43.7622 36.6698 46.1092 35.4763C45.6291 37.4952 44.7614 39.4012 43.5545 41.088C42.1638 42.9604 39.754 45.6212 37.3332 46.2317C36.2403 46.5054 35.437 45.7198 33.6693 45.3365C31.8496 44.9396 32.2212 46.53 32.0518 47.6414C32.0518 47.6414 26.172 50.1736 15.478 47.8604C15.478 47.8604 15.795 45.5063 14.7212 45.3365C13.6474 45.1668 12.7485 46.3603 9.66107 45.9771C6.57364 45.5939 1.36599 37.9099 0.335938 35.5612C0.335938 35.5612 3.40424 37.9099 2.89331 33.4698Z" stroke="white" stroke-width="0.404372" stroke-miterlimit="10"/>
<path d="M3.98067 36.3389L4.66646 37.5324L3.17192 38.3974L2.99706 38.0963L4.24296 37.3736L3.90416 36.7878L2.65826 37.5023L2.4834 37.2012L3.98067 36.3389Z" fill="white"/>
<path d="M3.72363 39.2622L5.13893 38.2686L5.46407 38.7284C5.5481 38.8383 5.62044 38.9567 5.67992 39.0816C5.71408 39.179 5.71408 39.2852 5.67992 39.3827C5.63897 39.4955 5.56217 39.5917 5.46134 39.6564C5.38718 39.7115 5.30102 39.7481 5.20997 39.7632C5.13463 39.7743 5.05771 39.7668 4.98593 39.7413C4.92218 39.7198 4.86357 39.6853 4.8138 39.64C4.7303 39.5556 4.65441 39.464 4.58702 39.3663L4.45587 39.1801L3.90943 39.5551L3.72363 39.2622ZM5.08975 38.7148L4.68811 38.9885L4.7974 39.1445C4.84666 39.2234 4.90744 39.2945 4.97773 39.3553C5.0173 39.382 5.06391 39.3963 5.11161 39.3964C5.15922 39.3956 5.20527 39.3792 5.24276 39.3498C5.26688 39.3351 5.28777 39.3156 5.3042 39.2925C5.32063 39.2695 5.33226 39.2434 5.33839 39.2157C5.35087 39.1624 5.3451 39.1065 5.32199 39.0569C5.28205 38.9923 5.23826 38.9301 5.19085 38.8708L5.08975 38.7148Z" fill="white"/>
<path d="M5.95049 42.1344L5.70459 41.8442L5.90678 41.4747L5.46416 40.9463L5.07344 41.0941L4.83301 40.8204L6.58437 40.21L6.82208 40.4837L5.95049 42.1344ZM6.05432 41.1982L6.38765 40.6014L5.74831 40.8396L6.05432 41.1982Z" fill="white"/>
<path d="M7.73448 41.4824L8.0077 41.7096L7.07601 42.8046L7.58147 43.2508L8.5159 42.1558L8.78912 42.383L7.85469 43.478L7.96398 43.5711L7.52409 44.072L7.30278 43.8831L7.54868 43.6094L6.61426 42.8101L7.73448 41.4824Z" fill="white"/>
<path d="M10.147 45.0436L9.80001 44.8931L9.81913 44.4715L9.18799 44.1978L8.89837 44.4989L8.55957 44.3456L9.87378 43.0371L10.2126 43.1849L10.147 45.0436ZM9.83553 44.1567L9.87651 43.4724L9.40383 43.9651L9.83553 44.1567Z" fill="white"/>
<path d="M11.2871 43.5243L11.6095 43.475L11.7816 44.6138L12.2953 43.371L12.6368 43.319L12.8964 45.0299L12.574 45.0791L12.4046 43.9623L11.8827 45.1832L11.5385 45.2352L11.2871 43.5243ZM12.1068 42.9631L12.2653 42.9385C12.2768 43.0358 12.2504 43.1339 12.1915 43.2122C12.1317 43.2841 12.0466 43.3302 11.9538 43.3409C11.8594 43.3585 11.7619 43.3399 11.6806 43.2889C11.6039 43.2327 11.5512 43.1496 11.533 43.0562L11.6915 43.0315C11.696 43.0552 11.7053 43.0776 11.719 43.0974C11.7326 43.1172 11.7502 43.134 11.7707 43.1465C11.8165 43.1718 11.8699 43.1796 11.921 43.1684C11.9737 43.1637 12.0231 43.1404 12.0603 43.1027C12.0764 43.086 12.0891 43.0663 12.0975 43.0447C12.106 43.0231 12.1101 43 12.1095 42.9768L12.1068 42.9631Z" fill="white"/>
<path d="M17.9721 45.8623L18.6551 45.9609C18.7567 45.9745 18.8572 45.9955 18.9557 46.0238C19.0181 46.0419 19.0753 46.0747 19.1223 46.1196C19.1718 46.165 19.2101 46.2212 19.2344 46.2839C19.2605 46.3539 19.2675 46.4297 19.2545 46.5034C19.2415 46.577 19.2091 46.6458 19.1606 46.7027C19.1075 46.7623 19.0382 46.8051 18.9611 46.8259C19.0528 46.8644 19.1295 46.9316 19.1797 47.0175C19.226 47.1007 19.2424 47.1974 19.2262 47.2912C19.2141 47.37 19.1842 47.4449 19.1387 47.5102C19.095 47.5766 19.0347 47.6304 18.9639 47.6663C18.8877 47.7011 18.8043 47.7171 18.7207 47.7128C18.6642 47.7128 18.5249 47.6964 18.3027 47.6635L17.7207 47.5787L17.9721 45.8623ZM18.177 46.8779L18.1087 47.3378L18.4284 47.3843C18.5513 47.4007 18.6333 47.409 18.6661 47.409C18.7162 47.4076 18.7643 47.3893 18.8027 47.3569C18.8417 47.3215 18.8661 47.2727 18.871 47.2201C18.8791 47.1736 18.8724 47.1257 18.8519 47.0832C18.8299 47.0424 18.7954 47.0098 18.7535 46.9901C18.6569 46.953 18.5559 46.9291 18.4529 46.919L18.177 46.8779ZM18.2753 46.1963L18.218 46.5932L18.4447 46.6261L18.6961 46.6589C18.7484 46.6611 18.8 46.6467 18.8437 46.6178C18.8635 46.6022 18.88 46.5828 18.8922 46.5607C18.9044 46.5386 18.912 46.5143 18.9147 46.4892C18.924 46.443 18.9152 46.3949 18.8901 46.355C18.8604 46.3141 18.8166 46.2858 18.7672 46.2757L18.4748 46.2264L18.2753 46.1963Z" fill="white"/>
<path d="M20.0488 47.875L20.2046 46.1504L21.4805 46.2681L21.4559 46.561L20.527 46.4761L20.4915 46.8566L21.3548 46.936L21.3275 47.2262L20.4641 47.1468L20.4231 47.6313L21.3822 47.7189L21.3576 48.0091L20.0488 47.875Z" fill="white"/>
<path d="M22.4483 46.3584L23.6423 46.3967L23.5986 47.8366H23.7489L23.7297 48.5045H23.4401V48.1268L22.3472 48.0939V48.4717H22.0576L22.0767 47.8038H22.2216C22.302 47.643 22.3555 47.47 22.38 47.2919C22.4115 47.0457 22.4307 46.7981 22.4374 46.55L22.4483 46.3584ZM22.7707 46.6595C22.7784 47.0493 22.7183 47.4374 22.5931 47.8065L23.2489 47.8257L23.2844 46.6759L22.7707 46.6595Z" fill="white"/>
<path d="M26.2051 47.9652L25.828 47.9898L25.6477 47.6093L24.9592 47.6586L24.8444 48.061L24.4756 48.0883L25.022 46.3117L25.3882 46.2871L26.2051 47.9652ZM25.5166 47.3273L25.2433 46.7032L25.0576 47.3602L25.5166 47.3273Z" fill="white"/>
<path d="M26.9372 47.9045L26.7432 46.1826L27.2623 46.1252L27.7049 47.2639L27.8825 46.054L28.4153 45.9883L28.6093 47.7101L28.2869 47.7457L28.1339 46.3907L27.9454 47.784L27.612 47.8224L27.1202 46.5057L27.2732 47.8579L26.9372 47.9045Z" fill="white"/>
<path d="M29.4725 47.5842L29.2266 45.8706L29.5708 45.8213L29.8167 47.5349L29.4725 47.5842Z" fill="white"/>
<path d="M34.2842 44.9287L34.4345 43.2041L34.7842 43.2342L34.7241 43.9131L35.4044 43.9733L35.4645 43.2944L35.8115 43.3245L35.6612 45.0491L35.3142 45.019L35.3798 44.2635L34.6995 44.2033L34.6312 44.9588L34.2842 44.9287Z" fill="white"/>
<path d="M38.3005 44.3461L37.9453 44.4775L37.6721 44.1627L37.0218 44.4008V44.8197L36.6748 44.9483L36.7076 43.0896L37.0546 42.9609L38.3005 44.3461ZM37.4617 43.9273L37.0163 43.4071V44.0888L37.4617 43.9273Z" fill="white"/>
<path d="M37.9971 42.5067L38.5708 42.1207C38.6571 42.0607 38.7485 42.0084 38.8441 41.9647C38.9028 41.936 38.9672 41.921 39.0326 41.9209C39.099 41.9216 39.1645 41.9376 39.2238 41.9674C39.2873 41.999 39.3418 42.046 39.3823 42.1043C39.426 42.17 39.4498 42.2471 39.4506 42.326C39.4528 42.406 39.4319 42.4849 39.3905 42.5532C39.4836 42.5219 39.5843 42.5219 39.6774 42.5532C39.7664 42.5824 39.8426 42.6414 39.8932 42.7202C39.9393 42.786 39.9684 42.8622 39.9779 42.942C39.9892 43.0204 39.9807 43.1003 39.9534 43.1746C39.9216 43.2518 39.8709 43.3196 39.8058 43.3717C39.7594 43.4101 39.6473 43.4922 39.4615 43.6181L38.9752 43.9493L37.9971 42.5067ZM38.4479 42.5505L38.6719 42.8817L38.8605 42.7558C38.9725 42.6792 39.0435 42.6299 39.0681 42.608C39.109 42.5743 39.1377 42.5282 39.1501 42.4766C39.1576 42.4276 39.1458 42.3775 39.1173 42.337C39.0919 42.2967 39.0533 42.2667 39.008 42.2521C38.9583 42.2421 38.9068 42.2509 38.8632 42.2768C38.8331 42.2932 38.7512 42.3479 38.6146 42.4383L38.4479 42.5505ZM38.8331 43.1226L39.09 43.5059L39.3632 43.3252C39.4308 43.2819 39.4956 43.2344 39.5572 43.1829C39.5911 43.1473 39.6139 43.1026 39.6228 43.0542C39.626 43.004 39.6136 42.9541 39.5871 42.9114C39.5607 42.8687 39.5215 42.8354 39.4752 42.816C39.4319 42.8008 39.3847 42.8008 39.3413 42.816C39.2437 42.8544 39.1518 42.906 39.0681 42.9693L38.8331 43.1226Z" fill="white"/>
<path d="M39.4102 41.5322L39.7025 41.2721L40.5987 41.6772L40.2599 40.7876L40.5331 40.5439L40.9675 41.9127C41.0094 42.0326 41.0334 42.158 41.0386 42.285C41.0386 42.333 41.028 42.3804 41.0077 42.4239C40.9874 42.4674 40.9579 42.506 40.9211 42.5368C40.8614 42.5923 40.7964 42.6418 40.7271 42.6846L40.555 42.4903L40.6588 42.4027C40.7081 42.3661 40.7437 42.3141 40.7599 42.2548C40.7597 42.1814 40.7419 42.1091 40.708 42.0441L39.4102 41.5322Z" fill="white"/>
<path d="M40.8027 40.2398L41.0268 39.966L41.5896 40.4369C41.6268 40.3924 41.6471 40.3361 41.647 40.2781C41.6162 40.1821 41.574 40.0902 41.5213 40.0043C41.4405 39.8896 41.3958 39.7533 41.3929 39.6129C41.4208 39.4957 41.4793 39.388 41.5623 39.3008L41.5951 39.2598L41.7918 39.424L41.759 39.4623C41.7235 39.502 41.6966 39.5486 41.6798 39.5992C41.6703 39.6369 41.6703 39.6764 41.6798 39.7142C41.713 39.7871 41.7514 39.8575 41.7945 39.925C41.8228 39.9729 41.8466 40.0233 41.8656 40.0755C41.8797 40.1321 41.8797 40.1914 41.8656 40.248C41.9318 40.2039 42.0102 40.1818 42.0896 40.185C42.1992 40.1938 42.3079 40.2112 42.4148 40.237L42.9312 40.3602L42.6579 40.6778L42.1825 40.5491H42.1415L42.076 40.5135C42.0128 40.4964 41.9471 40.4909 41.882 40.4971C41.8383 40.5117 41.8001 40.5394 41.7727 40.5765L42.3492 41.061L42.1251 41.3347L40.8027 40.2398Z" fill="white"/>
<path d="M44.1611 38.5015L43.9589 38.8218L43.5464 38.7397L43.1693 39.3255L43.4234 39.6567L43.2267 39.9688L42.1338 38.4742L42.3332 38.1621L44.1611 38.5015ZM43.2403 38.6795L42.5709 38.5371L42.989 39.0846L43.2403 38.6795Z" fill="white"/>
<path d="M42.8957 36.1962L42.964 36.0484C43.0485 36.0934 43.1129 36.1686 43.1443 36.2591C43.1719 36.3501 43.1631 36.4483 43.1198 36.5329C43.0837 36.6195 43.015 36.6884 42.9285 36.7245C42.8407 36.7593 42.743 36.7593 42.6553 36.7245L42.7236 36.5794C42.7461 36.5889 42.7702 36.5938 42.7946 36.5938C42.819 36.5938 42.8432 36.5889 42.8657 36.5794C42.9111 36.5533 42.9466 36.5129 42.9667 36.4645C42.9915 36.4174 42.9992 36.3632 42.9886 36.3112C42.9828 36.2862 42.9714 36.2629 42.9553 36.243C42.9392 36.2231 42.9189 36.2071 42.8957 36.1962ZM42.8957 37.1926L43.0351 36.8942L44.076 37.3842L43.3301 36.2591L43.4777 35.9443L45.0433 36.678L44.9066 36.9736L43.8821 36.4946L44.6088 37.6087L44.4613 37.9235L42.8957 37.1926Z" fill="white"/>
</g>
<defs>
<clipPath id="clip0_97_103">
<rect width="50" height="49" fill="white"/>
</clipPath>
</defs>
</svg>
